<?xml version="1.0" encoding="utf-8"?>
<!-- Generator: Adobe Illustrator 20.1.0, SVG Export Plug-In . SVG Version: 6.00 Build 0)  -->
<svg version="1.1" xmlns="http://www.w3.org/2000/svg" xmlns:xlink="http://www.w3.org/1999/xlink" x="0px" y="0px"
	 viewBox="0 0 100 100" style="enable-background:new 0 0 100 100;" xml:space="preserve">
<style type="text/css">
	.st0{fill:#1A1A1A;}
	.st1{opacity:0.75;fill:#0071BC;}
	.st2{opacity:0.5;fill:#C1272D;}
	.st3{opacity:0.86;fill:#FFFFFF;}
	.st4{fill:#F2F2F2;}
</style>
<g id="body">
	<g id="_x3C_circle_x3E_">
		<circle class="st0" cx="50" cy="50" r="47.8"/>
	</g>
</g>
<g id="ticks">
	<rect x="28.5" y="9.2" transform="matrix(0.8672 -0.4979 0.4979 0.8672 -2.5063 15.8969)" class="st1" width="0.2" height="6.8"/>
	<rect x="12.7" y="25" transform="matrix(0.5021 -0.8648 0.8648 0.5021 -18.1887 25.1562)" class="st1" width="0.2" height="6.8"/>
	
		<rect x="6.8" y="46.5" transform="matrix(2.434380e-03 -1 1 2.434380e-03 -42.9816 56.7039)" class="st1" width="0.2" height="6.8"/>
	
		<rect x="12.6" y="68" transform="matrix(-0.4979 -0.8672 0.8672 -0.4979 -43.0137 117.9843)" class="st1" width="0.2" height="6.8"/>
	
		<rect x="28.3" y="83.8" transform="matrix(-0.8648 -0.5021 0.5021 -0.8648 9.1052 176.9458)" class="st1" width="0.2" height="6.8"/>
	
		<rect x="49.8" y="89.6" transform="matrix(-1 -2.434380e-03 2.434380e-03 -1 99.5636 186.2607)" class="st1" width="0.2" height="6.8"/>
	
		<rect x="71.3" y="83.9" transform="matrix(-0.8672 0.4979 -0.4979 -0.8672 176.8949 127.5357)" class="st1" width="0.2" height="6.8"/>
	
		<rect x="87.2" y="68.2" transform="matrix(-0.5021 0.8648 -0.8648 -0.5021 192.9967 32.1376)" class="st1" width="0.2" height="6.8"/>
	
		<rect x="93" y="46.7" transform="matrix(-2.434380e-03 1 -1 -2.434380e-03 143.401 -42.8427)" class="st1" width="0.2" height="6.8"/>
	
		<rect x="87.3" y="25.1" transform="matrix(0.4979 0.8672 -0.8672 0.4979 68.6251 -61.4169)" class="st1" width="0.2" height="6.8"/>
	<rect x="71.5" y="9.3" transform="matrix(0.8648 0.5021 -0.5021 0.8648 16.0867 -34.2396)" class="st1" width="0.2" height="6.8"/>
	<rect x="45.2" y="3.8" transform="matrix(0.9945 -0.1045 0.1045 0.9945 -0.3203 4.7667)" class="st1" width="0.2" height="3.4"/>
	<rect x="40.6" y="4.5" transform="matrix(0.9781 -0.2079 0.2079 0.9781 -0.3944 8.5936)" class="st1" width="0.2" height="3.4"/>
	<rect x="36.1" y="5.7" transform="matrix(0.9511 -0.309 0.309 0.9511 -0.5132 11.5338)" class="st1" width="0.2" height="3.4"/>
	<rect x="31.7" y="7.4" transform="matrix(0.9135 -0.4067 0.4067 0.9135 -0.941 13.7083)" class="st1" width="0.2" height="3.4"/>
	<rect x="23.6" y="12.1" transform="matrix(0.809 -0.5878 0.5878 0.809 -3.5634 16.5354)" class="st1" width="0.2" height="3.4"/>
	<rect x="19.9" y="15" transform="matrix(0.7431 -0.6691 0.6691 0.7431 -6.0343 17.6854)" class="st1" width="0.2" height="3.4"/>
	<rect x="16.6" y="18.3" transform="matrix(0.6691 -0.7431 0.7431 0.6691 -9.3506 19.0361)" class="st1" width="0.2" height="3.4"/>
	<rect x="13.7" y="22" transform="matrix(0.5878 -0.809 0.809 0.5878 -13.4759 20.8794)" class="st1" width="0.2" height="3.4"/>
	<rect x="9" y="30.1" transform="matrix(0.4067 -0.9135 0.9135 0.4067 -23.6491 27.1351)" class="st1" width="0.2" height="3.4"/>
	<rect x="7.3" y="34.5" transform="matrix(0.309 -0.9511 0.9511 0.309 -29.2804 32.0073)" class="st1" width="0.2" height="3.4"/>
	<rect x="6.1" y="39" transform="matrix(0.2079 -0.9781 0.9781 0.2079 -34.9056 38.2637)" class="st1" width="0.2" height="3.4"/>
	<rect x="5.3" y="43.6" transform="matrix(0.1045 -0.9945 0.9945 0.1045 -40.1974 45.9892)" class="st1" width="0.2" height="3.4"/>
	<rect x="5.3" y="53" transform="matrix(-0.1045 -0.9945 0.9945 -0.1045 -48.376 65.8091)" class="st1" width="0.2" height="3.4"/>
	
		<rect x="6.1" y="57.6" transform="matrix(-0.2079 -0.9781 0.9781 -0.2079 -50.563 77.6863)" class="st1" width="0.2" height="3.4"/>
	<rect x="7.3" y="62.2" transform="matrix(-0.309 -0.9511 0.9511 -0.309 -51.0514 90.6006)" class="st1" width="0.2" height="3.4"/>
	
		<rect x="9" y="66.5" transform="matrix(-0.4067 -0.9135 0.9135 -0.4067 -49.5702 104.2573)" class="st1" width="0.2" height="3.4"/>
	
		<rect x="13.7" y="74.6" transform="matrix(-0.5878 -0.809 0.809 -0.5878 -39.9235 132.3306)" class="st1" width="0.2" height="3.4"/>
	
		<rect x="16.6" y="78.3" transform="matrix(-0.6691 -0.7431 0.7431 -0.6691 -31.5587 145.9114)" class="st1" width="0.2" height="3.4"/>
	
		<rect x="19.9" y="81.6" transform="matrix(-0.7431 -0.6691 0.6691 -0.7431 -20.841 158.5947)" class="st1" width="0.2" height="3.4"/>
	
		<rect x="23.6" y="84.6" transform="matrix(-0.809 -0.5878 0.5878 -0.809 -7.8878 169.9348)" class="st1" width="0.2" height="3.4"/>
	
		<rect x="31.7" y="89.2" transform="matrix(-0.9135 -0.4067 0.4067 -0.9135 23.8188 186.9276)" class="st1" width="0.2" height="3.4"/>
	
		<rect x="36.1" y="90.9" transform="matrix(-0.9511 -0.309 0.309 -0.9511 41.9198 191.8656)" class="st1" width="0.2" height="3.4"/>
	
		<rect x="40.6" y="92.1" transform="matrix(-0.9781 -0.2079 0.2079 -0.9781 60.9718 194.0623)" class="st1" width="0.2" height="3.4"/>
	
		<rect x="45.2" y="92.9" transform="matrix(-0.9945 -0.1045 0.1045 -0.9945 80.5005 193.3401)" class="st1" width="0.2" height="3.4"/>
	
		<rect x="54.6" y="92.9" transform="matrix(-0.9945 0.1045 -0.1045 -0.9945 118.9517 182.8872)" class="st1" width="0.2" height="3.4"/>
	
		<rect x="59.2" y="92.1" transform="matrix(-0.9781 0.2079 -0.2079 -0.9781 136.8429 173.2711)" class="st1" width="0.2" height="3.4"/>
	
		<rect x="63.7" y="90.9" transform="matrix(-0.9511 0.309 -0.309 -0.9511 153.1859 160.9639)" class="st1" width="0.2" height="3.4"/>
	
		<rect x="68.1" y="89.2" transform="matrix(-0.9135 0.4067 -0.4067 -0.9135 167.5358 146.2539)" class="st1" width="0.2" height="3.4"/>
	
		<rect x="76.2" y="84.6" transform="matrix(-0.809 0.5878 -0.5878 -0.809 188.7896 111.1563)" class="st1" width="0.2" height="3.4"/>
	
		<rect x="79.9" y="81.6" transform="matrix(-0.7431 0.6691 -0.6691 -0.7431 195.1555 91.6816)" class="st1" width="0.2" height="3.4"/>
	
		<rect x="83.2" y="78.3" transform="matrix(-0.6691 0.7431 -0.7431 -0.6691 198.4718 71.5969)" class="st1" width="0.2" height="3.4"/>
	
		<rect x="86.2" y="74.6" transform="matrix(-0.5878 0.809 -0.809 -0.5878 198.7021 51.4289)" class="st1" width="0.2" height="3.4"/>
	
		<rect x="90.8" y="66.5" transform="matrix(-0.4067 0.9135 -0.9135 -0.4067 190.2439 12.9027)" class="st1" width="0.2" height="3.4"/>
	<rect x="92.5" y="62.2" transform="matrix(-0.309 0.9511 -0.9511 -0.309 181.9531 -4.505)" class="st1" width="0.2" height="3.4"/>
	
		<rect x="93.7" y="57.6" transform="matrix(-0.2079 0.9781 -0.9781 -0.2079 171.3542 -20.1285)" class="st1" width="0.2" height="3.4"/>
	
		<rect x="94.5" y="53" transform="matrix(-0.1045 0.9945 -0.9945 -0.1045 158.8288 -33.6431)" class="st1" width="0.2" height="3.4"/>
	
		<rect x="94.5" y="43.6" transform="matrix(0.1045 0.9945 -0.9945 0.1045 129.7446 -53.463)" class="st1" width="0.2" height="3.4"/>
	<rect x="93.7" y="39" transform="matrix(0.2079 0.9781 -0.9781 0.2079 114.1145 -59.551)" class="st1" width="0.2" height="3.4"/>
	<rect x="92.5" y="34.5" transform="matrix(0.309 0.9511 -0.9511 0.309 98.3787 -63.0984)" class="st1" width="0.2" height="3.4"/>
	
		<rect x="90.8" y="30.1" transform="matrix(0.4067 0.9135 -0.9135 0.4067 82.9754 -64.2195)" class="st1" width="0.2" height="3.4"/>
	<rect x="86.2" y="22" transform="matrix(0.5878 0.809 -0.809 0.5878 54.6974 -60.0223)" class="st1" width="0.2" height="3.4"/>
	
		<rect x="83.2" y="18.3" transform="matrix(0.6691 0.7431 -0.7431 0.6691 42.4375 -55.2784)" class="st1" width="0.2" height="3.4"/>
	<rect x="79.9" y="15" transform="matrix(0.7431 0.6691 -0.6691 0.7431 31.7198 -49.2277)" class="st1" width="0.2" height="3.4"/>
	<rect x="76.2" y="12.1" transform="matrix(0.809 0.5878 -0.5878 0.809 22.6617 -42.2431)" class="st1" width="0.2" height="3.4"/>
	<rect x="68.1" y="7.4" transform="matrix(0.9135 0.4067 -0.4067 0.9135 9.5864 -26.9654)" class="st1" width="0.2" height="3.4"/>
	<rect x="63.7" y="5.7" transform="matrix(0.9511 0.309 -0.309 0.9511 5.4075 -19.3679)" class="st1" width="0.2" height="3.4"/>
	<rect x="59.2" y="4.5" transform="matrix(0.9781 0.2079 -0.2079 0.9781 2.5796 -12.1975)" class="st1" width="0.2" height="3.4"/>
	<rect x="54.6" y="3.8" transform="matrix(0.9945 0.1045 -0.1045 0.9945 0.8681 -5.6862)" class="st1" width="0.2" height="3.4"/>
	
		<rect x="50" y="3.5" transform="matrix(1 2.434380e-03 -2.434380e-03 1 1.701931e-02 -0.122)" class="st1" width="0.2" height="6.8"/>
</g>
<g id="hands">
	<rect x="50" y="9.1" transform="matrix(1 4.601024e-03 -4.601024e-03 1 0.1365 -0.2301)" class="st2" width="0.2" height="40.9"/>
	
		<rect x="50" y="13.8" transform="matrix(-1 9.094724e-03 -9.094724e-03 -1 100.6045 63.2921)" class="st3" width="0.3" height="36.2"/>
	
		<rect x="41.7" y="41.3" transform="matrix(-6.679935e-03 -1 1 -6.679935e-03 8.9601 91.9692)" class="st4" width="16.9" height="0.5"/>
</g>
</svg>
